HIERARCHY
ROOT Hips
{
	OFFSET 0 0 0
	CHANNELS 6 Xposition Yposition Zposition Yrotation Xrotation Zrotation
	JOINT Spine
	{
		OFFSET -0 8.00685 -2.55218
		CHANNELS 3 Yrotation Xrotation Zrotation
		JOINT Spine1
		{
			OFFSET -0 7.45793 0
			CHANNELS 3 Yrotation Xrotation Zrotation
			JOINT Spine2
			{
				OFFSET -0 7.45793 0
				CHANNELS 3 Yrotation Xrotation Zrotation
				JOINT Spine3
				{
					OFFSET -0 7.45793 0
					CHANNELS 3 Yrotation Xrotation Zrotation
					JOINT Neck
					{
						OFFSET -0 14.9948 3.55218
						CHANNELS 3 Yrotation Xrotation Zrotation
						JOINT Head
						{
							OFFSET -0 10.0086 0
							CHANNELS 3 Yrotation Xrotation Zrotation
							End Site
							{
								OFFSET 0 15 0
							}
						}
					}
					JOINT LeftShoulder
					{
						OFFSET 1.66809 3.17829 3.33619
						CHANNELS 3 Yrotation Xrotation Zrotation
						JOINT LeftArm
						{
							OFFSET 18.653 0 0
							CHANNELS 3 Yrotation Xrotation Zrotation
							JOINT LeftForeArm
							{
								OFFSET 22.9554 0 0
								CHANNELS 3 Yrotation Xrotation Zrotation
								JOINT LeftHand
								{
									OFFSET 21.8677 0 0
									CHANNELS 3 Yrotation Xrotation Zrotation
									JOINT LeftHandThumb1
									{
										OFFSET 4.74436 0 2.66649
										CHANNELS 3 Yrotation Xrotation Zrotation
										JOINT LeftHandThumb2
										{
											OFFSET 3 0 1
											CHANNELS 3 Yrotation Xrotation Zrotation
											JOINT LeftHandThumb3
											{
												OFFSET 2.1 0 0
												CHANNELS 3 Yrotation Xrotation Zrotation
												JOINT LeftHandThumb4
												{
													OFFSET 1.305 0 0
													CHANNELS 3 Yrotation Xrotation Zrotation
													End Site
													{
														OFFSET -0 0 0
													}
												}
											}
										}
									}
									JOINT LeftHandIndex1
									{
										OFFSET 8.93865 0 3.46871
										CHANNELS 3 Yrotation Xrotation Zrotation
										JOINT LeftHandIndex2
										{
											OFFSET 3.5 0 0
											CHANNELS 3 Yrotation Xrotation Zrotation
											JOINT LeftHandIndex3
											{
												OFFSET 2.45 0 0
												CHANNELS 3 Yrotation Xrotation Zrotation
												JOINT LeftHandIndex4
												{
													OFFSET 1.5225 0 0
													CHANNELS 3 Yrotation Xrotation Zrotation
													End Site
													{
														OFFSET -0 0 0
													}
												}
											}
										}
									}
									JOINT LeftHandMiddle1
									{
										OFFSET 8.93983 0 1.07882
										CHANNELS 3 Yrotation Xrotation Zrotation
										JOINT LeftHandMiddle2
										{
											OFFSET 4.6 0 0
											CHANNELS 3 Yrotation Xrotation Zrotation
											JOINT LeftHandMiddle3
											{
												OFFSET 3.22 0 0
												CHANNELS 3 Yrotation Xrotation Zrotation
												JOINT LeftHandMiddle4
												{
													OFFSET 2.001 0 0
													CHANNELS 3 Yrotation Xrotation Zrotation
													End Site
													{
														OFFSET -0 0 0
													}
												}
											}
										}
									}
									JOINT LeftHandRing1
									{
										OFFSET 8.64101 0 -1.31106
										CHANNELS 3 Yrotation Xrotation Zrotation
										JOINT LeftHandRing2
										{
											OFFSET 3.75 0 0
											CHANNELS 3 Yrotation Xrotation Zrotation
											JOINT LeftHandRing3
											{
												OFFSET 2.625 0 0
												CHANNELS 3 Yrotation Xrotation Zrotation
												JOINT LeftHandRing4
												{
													OFFSET 1.63125 0 0
													CHANNELS 3 Yrotation Xrotation Zrotation
													End Site
													{
														OFFSET -0 0 0
													}
												}
											}
										}
									}
									JOINT LeftHandPinky1
									{
										OFFSET 8.04219 0 -3.70094
										CHANNELS 3 Yrotation Xrotation Zrotation
										JOINT LeftHandPinky2
										{
											OFFSET 2.875 0 0
											CHANNELS 3 Yrotation Xrotation Zrotation
											JOINT LeftHandPinky3
											{
												OFFSET 2.0125 0 0
												CHANNELS 3 Yrotation Xrotation Zrotation
												JOINT LeftHandPinky4
												{
													OFFSET 1.25062 0 0
													CHANNELS 3 Yrotation Xrotation Zrotation
													End Site
													{
														OFFSET -0 0 0
													}
												}
											}
										}
									}
								}
							}
						}
					}
					JOINT RightShoulder
					{
						OFFSET -1.66809 3.17829 3.33619
						CHANNELS 3 Yrotation Xrotation Zrotation
						JOINT RightArm
						{
							OFFSET -18.653 0 0
							CHANNELS 3 Yrotation Xrotation Zrotation
							JOINT RightForeArm
							{
								OFFSET -22.9554 0 0
								CHANNELS 3 Yrotation Xrotation Zrotation
								JOINT RightHand
								{
									OFFSET -21.8677 0 0
									CHANNELS 3 Yrotation Xrotation Zrotation
									JOINT RightHandThumb1
									{
										OFFSET -4.93523 0 1.98499
										CHANNELS 3 Yrotation Xrotation Zrotation
										JOINT RightHandThumb2
										{
											OFFSET -3 0 1
											CHANNELS 3 Yrotation Xrotation Zrotation
											JOINT RightHandThumb3
											{
												OFFSET -2.1 0 0
												CHANNELS 3 Yrotation Xrotation Zrotation
												JOINT RightHandThumb4
												{
													OFFSET -1.305 0 0
													CHANNELS 3 Yrotation Xrotation Zrotation
													End Site
													{
														OFFSET -0 0 0
													}
												}
											}
										}
									}
									JOINT RightHandIndex1
									{
										OFFSET -9.43254 0 2.90277
										CHANNELS 3 Yrotation Xrotation Zrotation
										JOINT RightHandIndex2
										{
											OFFSET -3.5 0 0
											CHANNELS 3 Yrotation Xrotation Zrotation
											JOINT RightHandIndex3
											{
												OFFSET -2.45 0 0
												CHANNELS 3 Yrotation Xrotation Zrotation
												JOINT RightHandIndex4
												{
													OFFSET -1.5225 0 0
													CHANNELS 3 Yrotation Xrotation Zrotation
													End Site
													{
														OFFSET -0 0 0
													}
												}
											}
										}
									}
									JOINT RightHandMiddle1
									{
										OFFSET -9.35706 0 0.88564
										CHANNELS 3 Yrotation Xrotation Zrotation
										JOINT RightHandMiddle2
										{
											OFFSET -4.6 0 0
											CHANNELS 3 Yrotation Xrotation Zrotation
											JOINT RightHandMiddle3
											{
												OFFSET -3.22 0 0
												CHANNELS 3 Yrotation Xrotation Zrotation
												JOINT RightHandMiddle4
												{
													OFFSET -2.001 0 0
													CHANNELS 3 Yrotation Xrotation Zrotation
													End Site
													{
														OFFSET -0 0 0
													}
												}
											}
										}
									}
									JOINT RightHandRing1
									{
										OFFSET -8.98158 0 -1.13149
										CHANNELS 3 Yrotation Xrotation Zrotation
										JOINT RightHandRing2
										{
											OFFSET -3.75 0 0
											CHANNELS 3 Yrotation Xrotation Zrotation
											JOINT RightHandRing3
											{
												OFFSET -2.625 0 0
												CHANNELS 3 Yrotation Xrotation Zrotation
												JOINT RightHandRing4
												{
													OFFSET -1.63125 0 0
													CHANNELS 3 Yrotation Xrotation Zrotation
													End Site
													{
														OFFSET -0 0 0
													}
												}
											}
										}
									}
									JOINT RightHandPinky1
									{
										OFFSET -8.3061 0 -3.14863
										CHANNELS 3 Yrotation Xrotation Zrotation
										JOINT RightHandPinky2
										{
											OFFSET -2.875 0 0
											CHANNELS 3 Yrotation Xrotation Zrotation
											JOINT RightHandPinky3
											{
												OFFSET -2.0125 0 0
												CHANNELS 3 Yrotation Xrotation Zrotation
												JOINT RightHandPinky4
												{
													OFFSET -1.25062 0 0
													CHANNELS 3 Yrotation Xrotation Zrotation
													End Site
													{
														OFFSET -0 0 0
													}
												}
											}
										}
									}
								}
							}
						}
					}
				}
			}
		}
	}
	JOINT LeftUpLeg
	{
		OFFSET 10.0086 -3.33619 3
		CHANNELS 3 Yrotation Xrotation Zrotation
		JOINT LeftLeg
		{
			OFFSET -0 -43.585 2.33533
			CHANNELS 3 Yrotation Xrotation Zrotation
			JOINT LeftFoot
			{
				OFFSET -0 -36.8654 -2.33533
				CHANNELS 3 Yrotation Xrotation Zrotation
				JOINT LeftToeBase
				{
					OFFSET -0 -9.43469 9.49123
					CHANNELS 3 Yrotation Xrotation Zrotation
					End Site
					{
						OFFSET 0 0 5
					}
				}
			}
		}
	}
	JOINT RightUpLeg
	{
		OFFSET -10.0086 -3.33619 3
		CHANNELS 3 Yrotation Xrotation Zrotation
		JOINT RightLeg
		{
			OFFSET -0 -43.585 2.33533
			CHANNELS 3 Yrotation Xrotation Zrotation
			JOINT RightFoot
			{
				OFFSET -0 -36.8654 -2.33533
				CHANNELS 3 Yrotation Xrotation Zrotation
				JOINT RightToeBase
				{
					OFFSET -0 -9.43469 9.49123
					CHANNELS 3 Yrotation Xrotation Zrotation
					End Site
					{
						OFFSET 0 0 5
					}
				}
			}
		}
	}
}
MOTION
Frames: 4
Frame Time: 0.0047619
-15.876054 94.454535 22.438248 -37.934427 12.333841 -5.858612 5.963745 0.242990 4.292598 4.837217 -0.128868 3.040916 1.506059 -0.264713 1.705211 0.330040 -0.466758 0.624982 35.025265 -4.625139 -12.614020 12.650733 -16.205283 4.753339 20.897890 1.589225 9.593898 -28.247240 27.706256 -44.436524 -53.749832 5.956063 8.614644 42.348360 -44.037096 -56.966872 15.037273 -18.953583 -0.888934 17.460932 -21.752634 -1.490378 -69.192543 1.236529 -17.817263 0.000002 -0.000000 12.499999 0.000002 -0.000000 12.499999 0.000005 -0.000005 10.000008 -0.000005 0.000009 5.000006 0.000002 -0.000000 12.499999 0.000002 -0.000000 12.499999 0.000005 -0.000005 10.000008 -0.000005 0.000009 5.000006 0.000004 0.000005 6.096837 0.000004 0.000005 6.096837 0.000005 -0.000002 4.877463 -0.000004 0.000010 2.438734 0.000014 -0.000007 -9.282348 0.000014 -0.000007 -9.282348 -0.000003 0.000018 -7.425871 0.000002 -0.000009 -3.712944 -174.457636 -0.003275 -179.932334 1.463971 -5.920131 -12.434584 8.912596 -15.027144 -4.217101 26.185147 6.112711 -8.514764 -132.356769 -44.255917 93.708995 9.130685 -3.284348 -6.593880 10.533550 -3.684238 -7.627122 -32.345399 6.294416 1.255486 -0.000003 -0.000007 -12.499990 -0.000003 -0.000007 -12.499990 -0.000003 -0.000004 -9.999998 0.000009 0.000009 -5.000007 -0.000003 -0.000007 -12.499990 -0.000003 -0.000007 -12.499990 -0.000003 -0.000004 -9.999998 0.000009 0.000009 -5.000007 0.000815 -0.000028 -10.445242 0.000815 -0.000028 -10.445242 0.000636 -0.000137 -8.356200 0.000302 -0.000127 -4.178090 0.001018 -0.000043 15.643129 0.001018 -0.000043 15.643129 0.000794 0.000182 12.514495 0.000363 0.000187 6.257249 15.037273 -18.953583 -0.888934 16.488335 -11.377338 -7.355599 0.000000 4.316203 0.000000 -9.102924 0.417797 13.907770 0.000000 -5.406043 0.000000 135.734523 -61.505142 -171.863378 -180.000000 56.071245 -180.000000 -48.093696 -33.033970 -5.438337 0.000000 -14.272639 0.000000
-15.870465 94.457611 22.453955 -37.955744 12.335580 -5.862954 5.973172 0.254278 4.296111 4.850859 -0.155825 3.045587 1.502089 -0.260098 1.704213 0.321553 -0.455031 0.629419 35.036730 -4.613115 -12.632106 12.645836 -16.220397 4.790645 20.900579 1.578272 9.591055 -28.276145 27.729125 -44.451937 -53.731009 5.933086 8.644312 42.386719 -44.009012 -57.004655 15.037273 -18.953583 -0.888934 17.460932 -21.752634 -1.490378 -69.192543 1.236529 -17.817263 0.000002 -0.000000 12.499999 0.000002 -0.000000 12.499999 0.000005 -0.000005 10.000008 -0.000005 0.000009 5.000006 0.000002 -0.000000 12.499999 0.000002 -0.000000 12.499999 0.000005 -0.000005 10.000008 -0.000005 0.000009 5.000006 0.000004 0.000005 6.096837 0.000004 0.000005 6.096837 0.000005 -0.000002 4.877463 -0.000004 0.000010 2.438734 0.000014 -0.000007 -9.282348 0.000014 -0.000007 -9.282348 -0.000003 0.000018 -7.425871 0.000002 -0.000009 -3.712944 -174.457636 -0.003275 -179.932334 1.472224 -5.953857 -12.434976 8.891903 -15.056923 -4.172854 26.167689 6.089336 -8.495907 -132.253873 -44.342123 93.655064 9.130685 -3.284348 -6.593880 10.533550 -3.684238 -7.627122 -32.345399 6.294416 1.255486 -0.000003 -0.000007 -12.499990 -0.000003 -0.000007 -12.499990 -0.000003 -0.000004 -9.999998 0.000009 0.000009 -5.000007 -0.000003 -0.000007 -12.499990 -0.000003 -0.000007 -12.499990 -0.000003 -0.000004 -9.999998 0.000009 0.000009 -5.000007 0.000815 -0.000028 -10.445242 0.000815 -0.000028 -10.445242 0.000636 -0.000137 -8.356200 0.000302 -0.000127 -4.178090 0.001018 -0.000043 15.643129 0.001018 -0.000043 15.643129 0.000794 0.000182 12.514495 0.000363 0.000187 6.257249 15.037273 -18.953583 -0.888934 16.507629 -11.368907 -7.359632 0.000000 4.309038 0.000000 -9.119258 0.437258 13.887747 0.000000 -5.419204 0.000000 135.665481 -61.481314 -171.846287 -180.000000 56.065834 -180.000000 -48.103670 -33.084269 -5.459259 0.000000 -14.236313 0.000000
-15.867015 94.453052 22.470036 -37.973086 12.340450 -5.876106 5.967483 0.239357 4.317681 4.844882 -0.161300 3.047609 1.507892 -0.243158 1.701944 0.333347 -0.468017 0.624488 35.031202 -4.568946 -12.610668 12.648641 -16.259436 4.770471 20.898819 1.592235 9.596492 -28.270856 27.736271 -44.425855 -53.730435 5.935631 8.634224 42.436657 -44.006809 -57.052833 15.037273 -18.953583 -0.888934 17.460932 -21.752634 -1.490378 -69.192543 1.236529 -17.817263 0.000002 -0.000000 12.499999 0.000002 -0.000000 12.499999 0.000005 -0.000005 10.000008 -0.000005 0.000009 5.000006 0.000002 -0.000000 12.499999 0.000002 -0.000000 12.499999 0.000005 -0.000005 10.000008 -0.000005 0.000009 5.000006 0.000004 0.000005 6.096837 0.000004 0.000005 6.096837 0.000005 -0.000002 4.877463 -0.000004 0.000010 2.438734 0.000014 -0.000007 -9.282348 0.000014 -0.000007 -9.282348 -0.000003 0.000018 -7.425871 0.000002 -0.000009 -3.712944 -174.457636 -0.003275 -179.932334 1.448045 -5.911467 -12.439149 8.892004 -15.068816 -4.137712 26.138645 6.043851 -8.490561 -132.210641 -44.399235 93.671296 9.130685 -3.284348 -6.593880 10.533550 -3.684238 -7.627122 -32.345399 6.294416 1.255486 -0.000003 -0.000007 -12.499990 -0.000003 -0.000007 -12.499990 -0.000003 -0.000004 -9.999998 0.000009 0.000009 -5.000007 -0.000003 -0.000007 -12.499990 -0.000003 -0.000007 -12.499990 -0.000003 -0.000004 -9.999998 0.000009 0.000009 -5.000007 0.000815 -0.000028 -10.445242 0.000815 -0.000028 -10.445242 0.000636 -0.000137 -8.356200 0.000302 -0.000127 -4.178090 0.001018 -0.000043 15.643129 0.001018 -0.000043 15.643129 0.000794 0.000182 12.514495 0.000363 0.000187 6.257249 15.037273 -18.953583 -0.888934 16.470118 -11.357480 -7.350387 0.000000 4.282120 0.000000 -9.068304 0.420093 13.913609 0.000000 -5.463626 0.000000 135.605908 -61.442620 -171.846547 -180.000000 56.058085 -180.000000 -48.101328 -33.104547 -5.473943 0.000000 -14.264182 0.000000
-15.865215 94.454578 22.489574 -37.978828 12.323091 -5.862256 5.963855 0.248123 4.279532 4.845455 -0.153522 3.060397 1.493427 -0.252027 1.722075 0.321562 -0.472452 0.645282 35.062398 -4.548362 -12.620285 12.661558 -16.236899 4.790992 20.951801 1.611722 9.594086 -28.336310 27.727725 -44.431624 -53.695141 5.893037 8.637202 42.305192 -44.143802 -57.024590 15.091392 -18.953432 -0.827015 17.521818 -21.753633 -1.420304 -69.187331 1.218473 -17.802486 -0.000002 -0.000003 12.499999 -0.000002 -0.000003 12.499999 0.000005 0.000002 10.000002 0.000003 0.000000 4.999998 -0.000002 -0.000003 12.499999 -0.000002 -0.000003 12.499999 0.000005 0.000002 10.000002 0.000003 0.000000 4.999998 0.000002 0.000043 6.021387 0.000002 0.000043 6.021387 -0.000002 0.000034 4.817114 -0.000003 0.000019 2.408559 0.000003 0.000023 -9.320505 0.000003 0.000023 -9.320505 0.000002 0.000016 -7.456410 0.000005 0.000007 -3.728193 -174.457649 -0.003275 -179.932334 1.471300 -5.896696 -12.445666 8.886155 -15.092357 -4.121377 26.105664 6.030498 -8.466676 -132.372730 -44.442660 93.860566 9.123009 -3.274326 -6.600199 10.524644 -3.672678 -7.634209 -32.369411 6.329888 1.285176 -0.000006 -0.000004 -12.499994 -0.000006 -0.000004 -12.499994 0.000004 0.000003 -10.000003 -0.000004 -0.000006 -5.000004 -0.000006 -0.000004 -12.499994 -0.000006 -0.000004 -12.499994 0.000004 0.000003 -10.000003 -0.000004 -0.000006 -5.000004 0.000045 -0.000003 -10.786625 0.000045 -0.000003 -10.786625 0.000035 -0.000008 -8.629293 0.000009 -0.000012 -4.314642 0.000290 -0.000020 15.774998 0.000290 -0.000020 15.774998 0.000232 0.000050 12.619994 0.000105 0.000047 6.310000 15.091392 -18.953432 -0.827015 16.431421 -11.323511 -7.355502 0.000000 4.258786 0.000000 -9.001706 0.455753 13.908140 0.000000 -5.460375 0.000000 135.469892 -61.384659 -171.775899 -180.000000 56.034640 -180.000000 -48.080133 -33.067721 -5.410037 0.000000 -14.274020 0.000000
